<?xml version="1.0" encoding="iso-8859-1"?>
<!-- Generator: Adobe Illustrator 24.1.0, SVG Export Plug-In . SVG Version: 6.00 Build 0)  -->
<svg version="1.1" id="&#xB808;&#xC774;&#xC5B4;_1" xmlns="http://www.w3.org/2000/svg" xmlns:xlink="http://www.w3.org/1999/xlink"
	 x="0px" y="0px" viewBox="0 0 30.109 36.962" style="enable-background:new 0 0 30.109 36.962;" xml:space="preserve">
<path d="M15.289,10.62c-1.46,0-3.72-1.66-6.1-1.6c-3.14,0.04-6.02,1.82-7.64,4.64c-3.26,5.66-0.84,14.02,2.34,18.62
	c1.56,2.24,3.4,4.76,5.84,4.68c2.34-0.1,3.22-1.52,6.06-1.52c2.82,0,3.62,1.52,6.1,1.46c2.52-0.04,4.12-2.28,5.66-4.54
	c1.78-2.6,2.52-5.12,2.56-5.26c-0.06-0.02-4.9-1.88-4.96-7.48c-0.04-4.68,3.82-6.92,4-7.02c-2.2-3.22-5.58-3.58-6.76-3.66
	C19.309,8.7,16.729,10.62,15.289,10.62z M20.489,5.9c1.3-1.56,2.16-3.74,1.92-5.9c-1.86,0.08-4.1,1.24-5.44,2.8
	c-1.2,1.38-2.24,3.6-1.96,5.72C17.069,8.68,19.189,7.46,20.489,5.9"/>
</svg>
