<?xml version="1.0" standalone="no"?>
<!DOCTYPE svg PUBLIC "-//W3C//DTD SVG 20010904//EN"
 "http://www.w3.org/TR/2001/REC-SVG-20010904/DTD/svg10.dtd">
<svg version="1.0" xmlns="http://www.w3.org/2000/svg"
 width="1005.000000pt" height="315.000000pt" viewBox="0 0 1005.000000 315.000000"
 preserveAspectRatio="xMidYMid meet">
<metadata>
Created by potrace 1.10, written by Peter Selinger 2001-2011
</metadata>
<g transform="translate(0.000000,315.000000) scale(0.100000,-0.100000)"
fill="#000000" stroke="none">
<path d="M482 2666 c-71 -26 -122 -100 -122 -177 0 -76 41 -135 119 -170 42
-18 72 -19 653 -19 581 0 611 1 646 19 89 45 121 109 107 209 -8 57 -62 125
-110 138 -52 14 -1255 14 -1293 0z"/>
<path d="M2361 1826 c-42 -15 -81 -59 -81 -92 0 -38 27 -82 60 -99 24 -13 87
-15 394 -15 252 0 367 -3 372 -11 3 -6 -7 -25 -23 -42 -16 -18 -65 -77 -108
-132 -44 -55 -107 -132 -140 -171 -142 -168 -202 -241 -240 -290 -53 -69 -108
-135 -176 -214 -85 -99 -169 -212 -175 -238 -7 -27 11 -74 44 -113 l24 -29
541 0 542 0 24 25 c18 20 23 37 24 77 1 46 -2 54 -33 80 l-34 28 -391 0 c-216
0 -394 3 -398 6 -3 3 15 31 39 62 50 63 191 234 239 291 17 20 46 56 65 81 19
25 62 77 95 116 33 39 94 113 135 163 41 51 100 122 130 159 142 172 152 188
153 240 1 62 -28 102 -86 119 -59 18 -947 17 -996 -1z"/>
<path d="M3872 1826 c-57 -21 -77 -49 -77 -111 0 -46 4 -59 28 -82 l27 -28
429 0 429 0 27 27 c23 23 28 37 29 83 1 63 -18 89 -81 111 -51 18 -761 18
-811 0z"/>
<path d="M8166 1826 c-27 -9 -44 -22 -57 -47 -23 -44 -23 -67 0 -103 34 -51
51 -55 243 -56 101 0 179 -4 183 -10 3 -5 5 -261 5 -569 0 -331 4 -569 9 -584
5 -14 22 -37 38 -51 22 -21 38 -26 78 -26 45 0 55 4 83 33 l32 33 0 571 c0
314 3 578 6 587 5 14 31 16 181 16 179 0 197 3 241 43 17 16 22 32 22 67 0 53
-21 79 -79 99 -49 16 -931 13 -985 -3z"/>
<path d="M5143 1819 c-18 -5 -45 -26 -60 -46 l-28 -36 0 -648 0 -648 29 -30
c26 -27 36 -31 86 -31 57 0 77 11 106 60 5 8 11 226 14 484 4 344 8 470 17
473 6 2 22 -13 35 -34 12 -21 40 -61 61 -88 22 -28 74 -99 118 -160 43 -60 97
-135 120 -165 22 -30 76 -104 120 -165 43 -60 90 -126 104 -145 15 -19 57 -77
96 -129 83 -114 106 -131 176 -131 61 0 106 23 134 69 18 30 19 60 19 674 l-1
642 -24 30 c-22 27 -30 30 -84 30 -66 0 -89 -14 -115 -70 -14 -29 -16 -93 -16
-486 1 -248 -2 -454 -5 -458 -9 -8 -34 23 -200 254 -52 72 -106 146 -120 165
-15 19 -69 94 -120 165 -52 72 -106 146 -120 165 -14 19 -62 83 -105 142 -44
58 -84 109 -90 113 -19 12 -114 15 -147 4z"/>
<path d="M7224 1824 c-12 -3 -31 -15 -42 -27 -26 -27 -628 -1226 -642 -1279
-12 -44 -2 -76 37 -112 22 -21 38 -26 78 -26 45 0 55 4 81 33 17 17 68 109
114 202 46 94 88 173 94 177 6 5 155 7 331 5 l320 -2 93 -185 c51 -102 103
-195 114 -207 17 -18 32 -23 73 -23 46 0 56 4 88 35 27 26 37 44 37 67 0 19
-55 142 -151 337 -366 740 -484 972 -499 986 -17 16 -90 26 -126 19z m145
-575 c50 -100 91 -187 91 -195 0 -11 -34 -14 -189 -14 -105 0 -192 4 -195 9
-8 12 176 380 190 381 7 0 53 -81 103 -181z"/>
<path d="M454 1709 c-74 -45 -113 -156 -84 -231 16 -39 74 -96 110 -106 14 -4
293 -7 620 -7 577 0 596 1 625 20 106 70 126 209 41 290 -60 58 -22 55 -678
54 -578 -1 -604 -1 -634 -20z"/>
<path d="M3875 1223 c-44 -7 -77 -45 -82 -95 -5 -52 11 -85 56 -115 34 -23 35
-23 406 -23 370 0 372 0 406 23 42 28 72 86 63 121 -9 38 -60 83 -102 90 -41
6 -700 6 -747 -1z"/>
<path d="M9314 875 c-10 -8 -28 -15 -40 -15 -32 0 -129 -98 -148 -148 -34 -92
-12 -171 72 -249 30 -29 64 -53 74 -53 10 0 30 -7 43 -16 18 -12 42 -15 102
-11 97 5 143 22 208 79 78 69 103 160 69 250 -19 50 -116 148 -148 148 -12 0
-30 7 -40 15 -14 10 -45 15 -96 15 -51 0 -82 -5 -96 -15z m196 -30 c7 -8 17
-15 22 -15 22 0 88 -63 107 -103 24 -50 27 -123 7 -171 -17 -40 -93 -116 -117
-116 -9 0 -22 -7 -29 -15 -18 -21 -172 -21 -190 0 -7 8 -18 15 -24 15 -20 0
-97 80 -112 116 -20 48 -17 121 7 171 19 40 85 103 107 103 5 0 15 7 22 15 9
11 34 15 100 15 66 0 91 -4 100 -15z"/>
<path d="M9284 757 c-2 -7 -3 -67 -2 -133 3 -111 4 -119 23 -119 17 0 21 8 25
55 l5 55 40 3 c45 3 72 -18 103 -79 20 -39 52 -52 52 -20 0 11 -9 35 -20 53
-25 41 -25 54 0 85 27 34 25 49 -9 84 -28 28 -33 29 -121 29 -65 0 -92 -4 -96
-13z m180 -39 c13 -19 14 -25 2 -43 -11 -16 -24 -20 -72 -20 -57 0 -59 1 -62
28 -6 49 3 57 62 57 45 0 58 -4 70 -22z"/>
<path d="M459 749 c-111 -60 -131 -219 -40 -305 53 -50 93 -53 706 -53 659 0
672 1 737 84 18 24 22 41 23 105 0 69 -3 80 -28 113 -16 21 -46 46 -67 57 -38
19 -59 20 -667 19 -606 0 -629 -1 -664 -20z"/>
<path d="M3855 597 c-51 -29 -67 -60 -61 -117 3 -34 11 -51 35 -72 l31 -28
419 0 419 0 30 25 c63 53 47 157 -29 195 -36 19 -61 20 -421 20 -379 0 -383
-1 -423 -23z"/>
</g>
</svg>
