<?xml version="1.0" encoding="iso-8859-1"?>
<!-- Generator: Adobe Illustrator 24.1.0, SVG Export Plug-In . SVG Version: 6.00 Build 0)  -->
<svg version="1.1" id="Layer_1" xmlns="http://www.w3.org/2000/svg" xmlns:xlink="http://www.w3.org/1999/xlink" x="0px" y="0px"
	 viewBox="0 0 9.881 10.1" style="enable-background:new 0 0 9.881 10.1;" xml:space="preserve">
<g>
	<g>
		<path d="M5,4v2c0,0,2,0,2.8,0C7.3,7.3,6.7,8,5,8C3.4,8,2.1,6.7,2.1,5S3.4,2,5,2c0.9,0,1.4,0.3,2,0.7c0.4-0.4,0.4-0.5,1.4-1.5
			C7.5,0.5,6.4,0,5,0C2.3,0,0,2.3,0,5c0,2.8,2.3,5,5,5c4.2,0,5.2-3.6,4.8-6C8.9,4,5,4,5,4z"/>
	</g>
</g>
</svg>
