<?xml version="1.0" encoding="utf-8"?>
<!-- Generator: Adobe Illustrator 26.1.0, SVG Export Plug-In . SVG Version: 6.00 Build 0)  -->
<svg version="1.1" id="레이어_1" xmlns="http://www.w3.org/2000/svg" xmlns:xlink="http://www.w3.org/1999/xlink" x="0px"
	 y="0px" viewBox="0 0 448.3 413.9" style="enable-background:new 0 0 448.3 413.9;" xml:space="preserve">
<style type="text/css">
	.st0{fill:#060303;}
</style>
<g>
	<polygon class="st0" points="163.6,153.4 148.4,200.7 178.6,200.7 164,153.4 	"/>
	<path class="st0" d="M224.1,0L224.1,0C100.3,0,0,79.2,0,177c0,62.9,41.6,118,104,149.5l-21.1,78.9c-0.8,2.4-0.2,5,1.6,6.7
		c1.2,1.2,2.8,1.9,4.5,1.9c1.4-0.1,2.8-0.6,3.9-1.5l91-61.3c13.3,1.9,26.8,2.9,40.3,3c123.8,0,224.1-79.2,224.1-177.1
		S347.9,0,224.1,0z M104.2,233.1c0.2,3.6-1.1,7.1-3.5,9.7c-2.5,2.5-5.9,3.9-9.4,3.7c-3,0.1-5.9-0.9-8.2-2.6
		c-2.3-1.8-3.8-4.4-4.3-7.3c-0.2-1.1-0.3-2.3-0.2-3.4l0.2-84.1H54.1c-3,0.1-6-0.7-8.7-2.2c-2.4-1.4-4-3.8-4.5-6.5
		c-0.2-0.8-0.3-1.6-0.4-2.5c-0.2-3.2,1.3-6.3,3.8-8.3c2.8-2.1,6.1-3.1,9.6-3h74.6c3-0.1,6,0.7,8.6,2.2c2.4,1.4,4,3.8,4.5,6.6
		c0.1,0.8,0.2,1.6,0.2,2.4c0.2,3.2-1.2,6.4-3.7,8.4c-2.8,2-6.1,3.1-9.5,3h-24.4V233.1z M211,243c-2.3,2.3-5.4,3.5-8.6,3.4
		c-5.1,0.6-9.9-2.5-11.6-7.3l-6.7-19.7h-41.5l-6.7,19.7c-1.6,4.9-6.4,8-11.6,7.3c-2.7,0.1-5.4-0.6-7.6-2.2c-2.1-1.7-3.5-4.1-4-6.7
		c-0.2-0.9-0.3-1.8-0.2-2.8c0-1.6,0.2-3.2,0.7-4.7c0.5-1.9,1.1-3.7,1.7-5.6l33.4-92c0.8-2.6,2.4-4.8,4.7-6.3c2.4-1.4,5.1-2,7.9-1.9
		h6.2c2.9-0.1,5.8,0.6,8.4,2c2.7,1.9,4.5,4.7,5.3,7.8l31.2,90.3c0.9,2.3,1.6,4.8,2.1,7.2c0.2,1,0.4,2.1,0.5,3.1
		C214.6,237.9,213.3,240.9,211,243z M297.2,241.3c-2.8,2-6.2,3.1-9.6,3h-54c-3.4,0.2-6.8-0.7-9.7-2.5c-2.7-1.9-4.4-4.8-4.9-8
		c-0.3-1.7-0.5-3.5-0.6-5.3l0.2-90.9c-0.2-3.6,1.1-7.1,3.5-9.7c2.5-2.5,5.9-3.8,9.4-3.7c3-0.1,5.9,0.9,8.3,2.7
		c2.3,1.8,3.8,4.4,4.3,7.3c0.2,1.1,0.3,2.3,0.2,3.4v84.1h43.1c3.1-0.1,6.1,0.7,8.7,2.2c2.3,1.5,4,3.8,4.5,6.6
		c0.2,0.8,0.3,1.6,0.4,2.5C301.2,236.2,299.8,239.3,297.2,241.3z M394,243.4c-2.7,2-6,3.1-9.4,3c-2.2,0.1-4.4-0.4-6.4-1.4
		c-2.1-1.5-3.8-3.4-5.1-5.6l-29.7-47.9l-14.2,14.8l0.1,26.7c0.1,3.6-1.1,7.1-3.5,9.7c-2.5,2.5-5.9,3.8-9.5,3.7
		c-3,0.1-5.9-0.9-8.3-2.6c-2.3-1.8-3.8-4.4-4.3-7.3c-0.2-1.1-0.3-2.3-0.2-3.4l0.1-95.4c-0.1-3.6,1.1-7.1,3.5-9.7
		c2.5-2.5,5.9-3.8,9.4-3.7c3-0.1,5.9,0.9,8.2,2.7c2.3,1.8,3.8,4.4,4.3,7.3c0.2,1.1,0.3,2.3,0.3,3.4v39.1l40.5-46.6
		c1.5-1.7,3.1-3.2,4.9-4.5c1.6-1,3.5-1.5,5.4-1.4c2.8,0,5.5,0.8,7.7,2.4c2.2,1.4,3.8,3.7,4.3,6.3c0,0,0,0.5,0.2,1c0,0.4,0,0.7,0,1.1
		c0,1.7-0.4,3.4-1.2,4.9c-0.9,1.6-1.9,3-3.1,4.3l-26.5,29l31.3,49.7l0.9,1.5c1.6,2.3,2.9,4.8,3.7,7.5c0,0,0,0.4,0.2,0.8
		c0,0.3,0,0.6,0,0.9C398.2,237.2,396.8,240.9,394,243.4z"/>
</g>
</svg>
