<?xml version="1.0" encoding="utf-8"?>
<!-- Generator: Adobe Illustrator 26.1.0, SVG Export Plug-In . SVG Version: 6.00 Build 0)  -->
<svg version="1.1" id="레이어_1" xmlns="http://www.w3.org/2000/svg" xmlns:xlink="http://www.w3.org/1999/xlink" x="0px"
	 y="0px" viewBox="0 0 100 100" style="enable-background:new 0 0 100 100;" xml:space="preserve">
<style type="text/css">
	.st0{fill:#FFFFFF;}
	.st1{fill:#353636;}
	.st2{fill:none;stroke:#353636;stroke-width:4.9;}
</style>
<g id="그룹_219" transform="translate(-1563.147 -663.148)">
	<g id="교차_2" transform="translate(1563.148 663.148)">
		<path class="st0" d="M49.7,95.6L22.8,68.8c-14.9-14.9-14.9-39.1,0-54C30,7.5,39.6,3.6,49.8,3.6h0c10.1,0.1,19.6,4,26.7,11.2
			c7.2,7.2,11.2,16.8,11.2,27c0,10.2-4,19.8-11.2,27L49.7,95.6z"/>
		<path class="st1" d="M49.7,92.2L74.8,67c6.8-6.8,10.5-15.7,10.5-25.3c0-9.5-3.7-18.5-10.5-25.3C68.1,9.8,59.3,6.1,49.8,6h0
			c-9.5,0-18.5,3.7-25.3,10.5c-13.9,13.9-13.9,36.6,0,50.6L49.7,92.2 M49.7,99.1L21.1,70.5C5.2,54.6,5.2,28.9,21.1,13
			C29,5.1,39.4,1.1,49.8,1.1c10.3,0.1,20.6,4,28.4,11.9c15.9,15.9,15.9,41.6,0,57.5L49.7,99.1z"/>
	</g>
	<g id="타원_16" transform="translate(1567.707 667.034)">
		<circle class="st0" cx="44.9" cy="34.2" r="17.9"/>
		<circle class="st2" cx="44.9" cy="34.2" r="15.5"/>
	</g>
</g>
</svg>
