<?xml version="1.0" encoding="utf-8"?>
<!-- Generator: Adobe Illustrator 27.0.0, SVG Export Plug-In . SVG Version: 6.00 Build 0)  -->
<svg version="1.1" id="레이어_1" xmlns="http://www.w3.org/2000/svg" xmlns:xlink="http://www.w3.org/1999/xlink" x="0px"
	 y="0px" viewBox="0 0 100 100" style="enable-background:new 0 0 100 100;" xml:space="preserve">
<style type="text/css">
	.st0{fill:#FFFFFF;}
	.st1{fill:none;stroke:#040000;stroke-width:4.7;}
</style>
<g id="그룹_220" transform="translate(-1770 -333)">
	<g id="타원_8" transform="translate(1770 333)">
		<circle class="st0" cx="50" cy="50" r="49"/>
		<circle class="st1" cx="50" cy="50" r="46.6"/>
	</g>
</g>
<path d="M73,69.3c-1.9-2.6-4.5-6.2-6.2-8.7c-1.3,0.8-4.4,2.6-5.8,3.6l3.6,4.8c0,0-1.5,2.2-9.5,1.7c-3.1,0-6.8-1.1-9.3-3.8
	c-3-3.2-4.6-8.4-4.6-16.4c0-7.8,1.9-14,5.3-18.1c2.1-2.7,4.9-3.9,7.5-3.9c1.6,0,2.8,0.5,3.6,1.3c0.3,0.1,0.4,0.6,0.5,0.9l1.9,9.7
	c2.8-0.3,5.5-0.8,8.2-1.3c-0.3-6.2-0.7-12.5-1.3-18.8c-1.9-0.8-5.4-1.4-10.3-1.4c-6.9,0-13.9,2.4-19.2,7.3
	C31.8,31.9,26.9,40.6,27,53.8c0,9.7,4,17.5,8.9,21.7c4.6,3.9,10.6,5.4,16.8,5.4C63.7,79.9,69.8,74.7,73,69.3"/>
</svg>
