<?xml version="1.0" encoding="utf-8"?>
<!-- Generator: Adobe Illustrator 26.1.0, SVG Export Plug-In . SVG Version: 6.00 Build 0)  -->
<svg version="1.1" id="레이어_1" xmlns="http://www.w3.org/2000/svg" xmlns:xlink="http://www.w3.org/1999/xlink" x="0px"
	 y="0px" viewBox="0 0 100 100" style="enable-background:new 0 0 100 100;" xml:space="preserve">
<style type="text/css">
	.st0{enable-background:new    ;}
	.st1{fill:#040000;}
</style>
<g id="그룹_213" transform="translate(-1541 -333)">
	<g class="st0">
		<path class="st1" d="M1607.8,402c0-3.7-1.2-6.8-3.6-9.2c-2.4-2.4-6.7-4.6-12.8-6.7c-7.6-2.4-12.9-5.2-16-8.5
			c-3.1-3.3-4.6-7.5-4.6-12.7c0-5.5,1.7-9.9,5-13.4c3.4-3.4,7.9-5.4,13.7-5.8v-10.2h5.1v10.2c5.9,0.5,10.5,2.7,13.8,6.6
			c3.2,3.9,4.9,9.2,4.9,15.9h-6c0-5.3-1.4-9.5-4.1-12.6c-2.7-3.1-6.5-4.7-11.2-4.7c-4.8,0-8.5,1.3-11.2,3.8s-4,5.9-4,10
			c0,4,1.2,7.2,3.7,9.5c2.5,2.3,6.6,4.4,12.5,6.4c5.9,2,10.2,3.9,12.9,5.8c2.7,1.8,4.7,4,6,6.5c1.3,2.5,2,5.5,2,9
			c0,5.5-1.7,10-5.2,13.4c-3.5,3.4-8.2,5.3-14.2,5.8v9.6h-5.1V421c-6.8-0.4-12-2.6-15.7-6.4c-3.7-3.8-5.6-9-5.6-15.7h6.1
			c0,5.3,1.5,9.4,4.6,12.3c3.1,3,7.3,4.5,12.8,4.5c4.8,0,8.7-1.3,11.7-3.8C1606.3,409.4,1607.8,406.1,1607.8,402z"/>
	</g>
</g>
</svg>
