<?xml version="1.0" encoding="utf-8"?>
<!-- Generator: Adobe Illustrator 26.1.0, SVG Export Plug-In . SVG Version: 6.00 Build 0)  -->
<svg version="1.1" id="레이어_1" xmlns="http://www.w3.org/2000/svg" xmlns:xlink="http://www.w3.org/1999/xlink" x="0px"
	 y="0px" viewBox="0 0 100 100" style="enable-background:new 0 0 100 100;" xml:space="preserve">
<style type="text/css">
	.st0{fill:#FFFFFF;}
	.st1{fill:none;stroke:#000000;stroke-width:4.9;}
</style>
<g id="그룹_244" transform="translate(-1773 -752.002)">
	<g id="그룹_240">
		<g id="사각형_153" transform="translate(1773 754)">
			<rect x="15" y="8.8" class="st0" width="68.6" height="88.2"/>
			<rect x="17.5" y="11.2" class="st1" width="63.7" height="83.3"/>
		</g>
		<g id="합치기_2" transform="translate(-16551.5 -7408)">
			<path class="st0" d="M18388.5,8178.1h-29.4v-9.8h2.4h2.4v-2.5v-2.4h19.6v2.4v2.5h2.4h2.5V8178.1z"/>
			<path d="M18386.1,8175.7l0-4.9h-4.9v-4.9h-14.7v4.9h-4.9v4.9H18386.1 M18391,8180.6h-34.3v-14.7h4.9v-4.9h24.5v4.9h4.9V8180.6z"
				/>
		</g>
	</g>
	<g id="그룹_243">
		<path id="패스_129" class="st1" d="M1809.5,826.5h35.4"/>
		<g id="그룹_242">
			<g id="그룹_241">
				<path id="패스_127" class="st1" d="M1809.5,806.9h35.4"/>
				<path id="패스_130" class="st1" d="M1809.5,787.3h35.4"/>
				<path id="패스_127-2" class="st1" d="M1799.7,806.9h5.2"/>
				<path id="패스_129-2" class="st1" d="M1799.7,826.5h5.2"/>
				<path id="패스_130-2" class="st1" d="M1799.7,787.3h5.2"/>
			</g>
		</g>
	</g>
</g>
</svg>
